<svg xmlns="http://www.w3.org/2000/svg" xmlns:xlink="http://www.w3.org/1999/xlink" width="500" zoomAndPan="magnify" viewBox="0 0 375 374.999991" height="500" preserveAspectRatio="xMidYMid meet" version="1.0"><defs><clipPath id="89515bfb81"><path d="M 107.371094 225.308594 L 267.511719 225.308594 L 267.511719 256.648438 L 107.371094 256.648438 Z M 107.371094 225.308594 " clip-rule="nonzero"/></clipPath><clipPath id="d4501ef23f"><path d="M 218.398438 256.648438 L 107.46875 256.648438 L 156.582031 225.308594 L 267.511719 225.308594 Z M 218.398438 256.648438 " clip-rule="nonzero"/></clipPath><clipPath id="71bc083667"><path d="M 0.371094 0.308594 L 160.511719 0.308594 L 160.511719 31.648438 L 0.371094 31.648438 Z M 0.371094 0.308594 " clip-rule="nonzero"/></clipPath><clipPath id="05a74cb198"><path d="M 111.398438 31.648438 L 0.46875 31.648438 L 49.582031 0.308594 L 160.511719 0.308594 Z M 111.398438 31.648438 " clip-rule="nonzero"/></clipPath><clipPath id="58fa43548b"><rect x="0" width="161" y="0" height="32"/></clipPath><clipPath id="c9138b06c4"><path d="M 107.371094 118.335938 L 267.511719 118.335938 L 267.511719 149.679688 L 107.371094 149.679688 Z M 107.371094 118.335938 " clip-rule="nonzero"/></clipPath><clipPath id="62250dec46"><path d="M 218.398438 149.679688 L 107.46875 149.679688 L 156.582031 118.335938 L 267.511719 118.335938 Z M 218.398438 149.679688 " clip-rule="nonzero"/></clipPath><clipPath id="a6dfab1d46"><path d="M 0.371094 0.335938 L 160.511719 0.335938 L 160.511719 31.679688 L 0.371094 31.679688 Z M 0.371094 0.335938 " clip-rule="nonzero"/></clipPath><clipPath id="83d5da7a7c"><path d="M 111.398438 31.679688 L 0.46875 31.679688 L 49.582031 0.335938 L 160.511719 0.335938 Z M 111.398438 31.679688 " clip-rule="nonzero"/></clipPath><clipPath id="16fd0306b9"><rect x="0" width="161" y="0" height="32"/></clipPath><clipPath id="6744ad7830"><path d="M 107.371094 171.824219 L 267.511719 171.824219 L 267.511719 203.164062 L 107.371094 203.164062 Z M 107.371094 171.824219 " clip-rule="nonzero"/></clipPath><clipPath id="2004bc55de"><path d="M 218.398438 203.164062 L 107.46875 203.164062 L 156.582031 171.824219 L 267.511719 171.824219 Z M 218.398438 203.164062 " clip-rule="nonzero"/></clipPath><clipPath id="e45b2efb14"><path d="M 0.371094 0.824219 L 160.511719 0.824219 L 160.511719 32.164062 L 0.371094 32.164062 Z M 0.371094 0.824219 " clip-rule="nonzero"/></clipPath><clipPath id="e09b5d5be2"><path d="M 111.398438 32.164062 L 0.46875 32.164062 L 49.582031 0.824219 L 160.511719 0.824219 Z M 111.398438 32.164062 " clip-rule="nonzero"/></clipPath><clipPath id="f28821a68a"><rect x="0" width="161" y="0" height="33"/></clipPath></defs><rect x="-37.5" width="450" fill="#ffffff" y="-37.499999" height="449.999989" fill-opacity="1"/><rect x="-37.5" width="450" fill="#0a0a0a" y="-37.499999" height="449.999989" fill-opacity="1"/><g clip-path="url(#89515bfb81)"><g clip-path="url(#d4501ef23f)"><g transform="matrix(1, 0, 0, 1, 107, 225)"><g clip-path="url(#58fa43548b)"><g clip-path="url(#71bc083667)"><g clip-path="url(#05a74cb198)"><path fill="#f4f4f4" d="M 160.511719 31.648438 L 0.492188 31.648438 L 0.492188 0.308594 L 160.511719 0.308594 Z M 160.511719 31.648438 " fill-opacity="1" fill-rule="nonzero"/></g></g></g></g></g></g><g clip-path="url(#c9138b06c4)"><g clip-path="url(#62250dec46)"><g transform="matrix(1, 0, 0, 1, 107, 118)"><g clip-path="url(#16fd0306b9)"><g clip-path="url(#a6dfab1d46)"><g clip-path="url(#83d5da7a7c)"><path fill="#f4f4f4" d="M 160.511719 31.679688 L 0.492188 31.679688 L 0.492188 0.335938 L 160.511719 0.335938 Z M 160.511719 31.679688 " fill-opacity="1" fill-rule="nonzero"/></g></g></g></g></g></g><g clip-path="url(#6744ad7830)"><g clip-path="url(#2004bc55de)"><g transform="matrix(1, 0, 0, 1, 107, 171)"><g clip-path="url(#f28821a68a)"><g clip-path="url(#e45b2efb14)"><g clip-path="url(#e09b5d5be2)"><path fill="#f4f4f4" d="M 160.511719 32.164062 L 0.492188 32.164062 L 0.492188 0.824219 L 160.511719 0.824219 Z M 160.511719 32.164062 " fill-opacity="1" fill-rule="nonzero"/></g></g></g></g></g></g></svg>